# xmcd
#
# Track frame offsets:
#       182
#       16497
#       26620
#       40032
#       49690
#       68900
#       84742
#       100895
#       115705
#       129330
#       139872
#       152065
#       168300
#       185262
#       195270
#       210072
#       224915
#       238537
#       252332
#       264410
#
# Disc length: 3699 seconds
#
# Revision: 2
# Processed by: cddbd v1.4PL0 Copyright (c) Steve Scherf et al.
# Submitted via: WhereIsIt 3.26
#
DISCID=0d0e7114
DTITLE=Ray Charles - Greatest Country and Western Hits - DZS-040
DYEAR=1900
DGENRE=
TTITLE0=Your Cheating Heart
TTITLE1=Hey Good Lookin'
TTITLE2=Take These Chains From My Heart
TTITLE3=Don't Tell Me Your Troubles
TTITLE4=I Can't Stop Loving You
TTITLE5=Just A Little Lovin' (Will Go A Long Way)
TTITLE6=It Makes No Difference Now
TTITLE7=You Don't Know Me
TTITLE8=You Are My Sunshine
TTITLE9=I'll Never Stand In Your Way
TTITLE10=Someday (You'll Want Me To Want You)
TTITLE11=I Love You So Much It Hurts
TTITLE12=Careless Love
TTITLE13=Oh, Lonesome Me
TTITLE14=Hang Your Head In Shame
TTITLE15=Midnight
TTITLE16=No Letter Today
TTITLE17=Crying Time
TTITLE18=Together Agian
TTITLE19=Don't Let Her Know
EXTD=
EXTT0=
EXTT1=
EXTT2=
EXTT3=
EXTT4=
EXTT5=
EXTT6=
EXTT7=
EXTT8=
EXTT9=
EXTT10=
EXTT11=
EXTT12=
EXTT13=
EXTT14=
EXTT15=
EXTT16=
EXTT17=
EXTT18=
EXTT19=
PLAYORDER=
